<svg xmlns="http://www.w3.org/2000/svg" width="1440" height="900"><rect width="1440" height="900" fill="#f3f6f9"/><rect width="1440" height="88" fill="#0b2d4d"/><g font-family="Arial"><text x="42" y="48" font-size="36" font-weight="700" fill="#fff">LineCrew Pro</text><text x="42" y="72" font-size="15" fill="#d9e6f2">FOREMAN TRAINING • TIMEKEEPING</text><text x="54" y="150" font-size="38" font-weight="700" fill="#102235">Enter Regular and OT</text><rect x="60" y="180" width="1320" height="560" rx="16" fill="#fff" stroke="#cbd8e3"/><text x="80" y="220" font-size="28" font-weight="700" fill="#102235">Daily Report • Crew Time</text><text x="82" y="244" font-size="19" fill="#6c7a89">The borrowed employee stays assigned to his home crew. His time is recorded on this job for today.</text><g font-size="18" font-weight="700" fill="#102235"><text x="85" y="296">Employee</text><text x="770" y="296">Regular</text><text x="980" y="296">OT</text></g><g font-size="19" fill="#102235"><text x="100" y="357">John Smith — Foreman</text><text x="820" y="357">8</text><text x="1030" y="357">2</text><text x="100" y="429">Mike Jones — Journeyman</text><text x="820" y="429">8</text><text x="1030" y="429">2</text><text x="100" y="501">Chris White — Operator • Other crew</text><text x="820" y="501">8</text><text x="1030" y="501">2</text></g><g fill="none" stroke="#cbd8e3"><rect x="85" y="325" width="635" height="50" rx="9"/><rect x="770" y="325" width="130" height="50" rx="9"/><rect x="980" y="325" width="130" height="50" rx="9"/><rect x="85" y="397" width="635" height="50" rx="9"/><rect x="770" y="397" width="130" height="50" rx="9"/><rect x="980" y="397" width="130" height="50" rx="9"/><rect x="85" y="469" width="635" height="50" rx="9"/><rect x="770" y="469" width="130" height="50" rx="9"/><rect x="980" y="469" width="130" height="50" rx="9"/></g><text x="85" y="590" font-size="19" fill="#6c7a89">Crew total: 24.00 regular / 6.00 OT</text><rect x="85" y="625" width="250" height="48" rx="10" fill="#198754"/><text x="135" y="656" font-size="18" font-weight="700" fill="#fff">Save &amp; Continue</text></g></svg>