<svg xmlns="http://www.w3.org/2000/svg" width="1440" height="900"><rect width="1440" height="900" fill="#f3f6f9"/><rect width="1440" height="88" fill="#0b2d4d"/><g font-family="Arial"><text x="42" y="48" font-size="36" font-weight="700" fill="#fff">LineCrew Pro</text><text x="42" y="72" font-size="15" fill="#d9e6f2">ADMIN TRAINING • TIMEKEEPING</text><text x="54" y="150" font-size="38" font-weight="700" fill="#102235">Run a Time Report</text><rect x="60" y="180" width="1320" height="600" rx="16" fill="#fff" stroke="#cbd8e3"/><text x="80" y="220" font-size="28" font-weight="700" fill="#102235">Time Report</text><g font-size="18" font-weight="700" fill="#102235"><text x="85" y="260">From</text><text x="370" y="260">Through</text><text x="655" y="260">Employee</text><text x="980" y="260">Job</text></g><g font-size="19" fill="#102235"><text x="97" y="302">08/17/2026</text><text x="382" y="302">08/23/2026</text><text x="667" y="302">All employees</text><text x="992" y="302">All jobs</text></g><g fill="none" stroke="#cbd8e3"><rect x="85" y="273" width="260" height="48" rx="9"/><rect x="370" y="273" width="260" height="48" rx="9"/><rect x="655" y="273" width="300" height="48" rx="9"/><rect x="980" y="273" width="300" height="48" rx="9"/></g><rect x="85" y="345" width="180" height="48" rx="10" fill="#1677d2"/><text x="124" y="376" font-size="18" font-weight="700" fill="#fff">Run Report</text><rect x="285" y="345" width="180" height="48" rx="10" fill="#0b2d4d"/><text x="326" y="376" font-size="18" font-weight="700" fill="#fff">Export CSV</text><g fill="#fff" stroke="#cbd8e3"><rect x="85" y="430" width="280" height="100" rx="14"/><rect x="390" y="430" width="280" height="100" rx="14"/><rect x="695" y="430" width="280" height="100" rx="14"/><rect x="1000" y="430" width="280" height="100" rx="14"/></g><g fill="#0b2d4d" font-size="28" font-weight="700"><text x="105" y="470">5</text><text x="410" y="470">200.00</text><text x="715" y="470">50.00</text><text x="1020" y="470">250.00</text></g><g fill="#6c7a89" font-size="15"><text x="105" y="498">Employees</text><text x="410" y="498">Regular Hours</text><text x="715" y="498">OT Hours</text><text x="1020" y="498">Total Hours</text></g></g></svg>